<?xml version="1.0" standalone="no"?>
<!DOCTYPE svg PUBLIC "-//W3C//DTD SVG 20010904//EN"
 "http://www.w3.org/TR/2001/REC-SVG-20010904/DTD/svg10.dtd">
<svg version="1.0" xmlns="http://www.w3.org/2000/svg"
 width="400.000000pt" height="400.000000pt" viewBox="0 0 400.000000 400.000000"
 preserveAspectRatio="xMidYMid meet">
<metadata>
Created by potrace 1.11, written by Peter Selinger 2001-2013
</metadata>
<g transform="translate(0.000000,400.000000) scale(0.100000,-0.100000)"
fill="#000000" stroke="none">
<path d="M2535 3971 c-159 -27 -215 -105 -217 -301 -3 -277 120 -709 312
-1092 241 -480 527 -742 711 -651 81 40 228 226 326 413 112 213 235 561 267
755 3 17 10 54 16 84 18 94 25 182 25 301 0 124 -6 145 -67 222 -80 102 -317
199 -567 234 -25 3 -57 8 -71 10 -23 3 -90 11 -165 19 -81 9 -526 13 -570 6z"/>
<path d="M1665 3913 c-111 -14 -360 -59 -465 -84 -69 -16 -134 -32 -145 -34
-89 -20 -339 -103 -460 -152 -269 -109 -460 -241 -518 -355 -52 -102 -70 -291
-46 -467 5 -36 11 -81 14 -100 3 -20 7 -47 10 -61 3 -14 8 -41 11 -60 8 -46
67 -277 92 -361 99 -332 293 -795 472 -1124 37 -68 200 -345 212 -360 5 -5 42
-58 83 -117 318 -455 625 -668 872 -604 255 65 620 388 975 861 93 124 241
345 236 350 -2 3 -20 0 -39 -5 -66 -19 -173 -12 -235 15 -198 88 -442 401
-677 870 -80 158 -120 245 -157 335 -12 30 -28 69 -35 85 -28 66 -35 84 -69
175 -95 259 -157 479 -183 645 -2 17 -8 47 -13 68 -4 21 -7 90 -6 155 2 148
23 225 78 287 22 25 36 44 31 44 -4 -1 -21 -4 -38 -6z"/>
</g>
</svg>
