<?xml version="1.0" encoding="utf-8"?>

<svg version="1.1" xmlns="http://www.w3.org/2000/svg" xmlns:xlink="http://www.w3.org/1999/xlink" x="0px" y="0px"
	 viewBox="0 0 779.528 779.528" enable-background="new 0 0 779.528 779.528" xml:space="preserve">

	<g class="word" id="zone_1">>
		<g>
			<path fill="#FFFFFF" d="M513.909,146.445c-1.485-0.123-4.259-0.634-6.876-1.862c-3.352-1.572-5.51-3.625-6.55-6.302
				c-0.979-2.503-0.75-5.589,0.656-8.588c2.981-6.279,9.298-8.195,15.854-5.119c2.44,1.145,4.117,2.541,4.822,3.41l-2.16,2.538
				c-0.854-1.01-2.011-1.983-4.099-2.963c-4.234-1.986-8.376-0.88-10.542,3.736c-2.11,4.499-0.602,8.471,3.515,10.402
				c1.323,0.621,2.347,0.886,2.914,0.901l2.331-4.969l-3.499-1.642l1.338-2.852l6.998,3.283L513.909,146.445z"/>
		</g>
		<g>
			<path fill="#FFFFFF" d="M523.622,145.85l-4.693,4.47l-3.589-2.031l16.882-15.593l4.437,2.511l-4.589,22.549l-3.759-2.127
				l1.33-6.373L523.622,145.85z M530.563,146.309l1.156-5.539c0.288-1.367,0.713-2.842,1.055-4.104l-0.057-0.032
				c-0.906,0.942-1.969,2.094-2.92,3.049l-4.124,3.859L530.563,146.309z"/>
		</g>
		<g>
			<path fill="#FFFFFF" d="M536.644,155.596c0.646,1.32,1.942,2.953,3.651,4.078c2.114,1.394,3.969,1.177,4.951-0.314
				c0.912-1.383,0.525-2.804-1.225-5.163c-2.322-3.086-3.193-5.954-1.46-8.584c1.983-3.01,5.961-3.616,9.946-0.99
				c1.979,1.304,3.131,2.685,3.758,3.799l-2.555,2.166c-0.446-0.799-1.381-2.154-3.089-3.28c-2.115-1.394-3.742-0.872-4.457,0.213
				c-0.93,1.41-0.301,2.757,1.515,5.314c2.386,3.284,2.851,5.884,1.117,8.514c-1.948,2.956-5.851,4.04-10.542,0.948
				c-1.952-1.287-3.602-3.151-4.193-4.436L536.644,155.596z"/>
		</g>
		<g>
			<path fill="#FFFFFF" d="M562.512,156.154l-4.986-3.741l2.007-2.675l13.219,9.918l-2.007,2.675l-5.038-3.78l-11.126,14.829
				l-3.194-2.397L562.512,156.154z"/>
		</g>
		<g>
			<path fill="#FFFFFF" d="M575.318,162.187c1.35,0.77,3.154,2.057,4.906,3.555c2.394,2.047,3.659,3.813,3.992,5.722
				c0.259,1.545-0.215,3.148-1.438,4.58c-1.836,2.146-4.537,2.357-6.58,1.549l-0.063,0.074c0.829,1.478,0.553,3.25-0.424,5.191
				c-1.23,2.537-2.432,4.841-2.66,5.757l-3.108-2.659c0.175-0.705,0.916-2.42,2.245-4.873c1.363-2.593,1.189-3.938-0.495-5.465
				l-1.53-1.309l-5.846,6.834l-3.01-2.574L575.318,162.187z M572.061,172.089l1.801,1.541c2.048,1.751,4.235,1.742,5.649,0.089
				c1.54-1.801,1.021-3.741-0.953-5.429c-0.963-0.823-1.643-1.277-2.002-1.456L572.061,172.089z"/>
		</g>
		<g>
			<path fill="#FFFFFF" d="M596.652,196.138c-5.169,5.207-11.276,5.046-15.539,0.814c-4.4-4.369-3.826-10.478,0.68-15.017
				c4.758-4.792,11.116-5.16,15.493-0.814C601.802,185.605,601.067,191.691,596.652,196.138z M584.857,184.84
				c-3.156,3.18-4.06,7.27-1.341,9.968c2.741,2.722,6.824,1.697,10.049-1.552c2.905-2.926,4.198-7.132,1.364-9.945
				C592.119,180.521,588.037,181.638,584.857,184.84z"/>
		</g>
		<g>
			<path fill="#FFFFFF" d="M590.782,206.305l16.619-14.244l2.98,3.477l-3.449,10.398c-0.92,2.67-1.998,5.305-3.143,7.612
				l0.042,0.049c2.029-2.124,4.133-4.012,6.672-6.188l5.795-4.966l2.409,2.811l-16.619,14.244l-2.705-3.156l3.604-10.617
				c0.916-2.624,2.008-5.442,3.185-7.862l-0.109-0.078c-2.039,1.962-4.191,3.892-6.929,6.238l-5.942,5.093L590.782,206.305z"/>
		</g>
		<g>
			<path fill="#FFFFFF" d="M625.142,231.902c-5.938,4.314-11.943,3.177-15.475-1.684c-3.646-5.019-2.101-10.958,3.076-14.719
				c5.465-3.97,11.802-3.315,15.429,1.677C631.914,222.326,630.213,228.218,625.142,231.902z M615.303,218.857
				c-3.626,2.634-5.173,6.528-2.92,9.629c2.271,3.126,6.467,2.768,10.172,0.077c3.337-2.424,5.287-6.37,2.939-9.602
				C623.165,215.755,618.956,216.204,615.303,218.857z"/>
		</g>
		<g>
			<path fill="#FFFFFF" d="M634.927,252.221c2.359-1.562,5.203-3.45,7.757-4.939l-0.051-0.083c-2.652,0.753-5.655,1.489-8.525,2.069
				l-9.789,2.105l-1.566-2.621l6.529-7.308c1.964-2.158,4.129-4.36,6.171-6.261l-0.034-0.056c-2.503,1.382-5.553,3.054-8.2,4.447
				l-7.805,4.098l-1.917-3.206l19.54-9.976l2.699,4.516l-6.089,6.969c-1.803,1.985-3.683,3.904-5.49,5.627l0.05,0.084
				c2.335-0.715,5.032-1.457,7.668-2.048l9.076-1.906l2.666,4.46l-18.14,12.317l-1.999-3.345L634.927,252.221z"/>
		</g>
		<g>
			<path fill="#FFFFFF" d="M652.292,257.438l-19.469,10.007l-1.826-3.553l19.469-10.007L652.292,257.438z"/>
		</g>
		<g>
			<path fill="#FFFFFF" d="M648.723,278.406l-3.43-7.5l-5.847,2.674l3.836,8.385l-2.982,1.364l-5.496-12.017l19.9-9.102
				l5.293,11.574l-2.981,1.364l-3.633-7.942l-5.138,2.35l3.431,7.5L648.723,278.406z"/>
		</g>
	</g>
	
</svg>
