<?xml version="1.0" encoding="utf-8"?>

<svg version="1.1" xmlns="http://www.w3.org/2000/svg" xmlns:xlink="http://www.w3.org/1999/xlink" x="0px" y="0px"
	 viewBox="0 0 779.528 779.528" enable-background="new 0 0 779.528 779.528" xml:space="preserve">

	<g class="word" id="zone_3">>
		<path fill="#FFFFFF" d="M134.427,266.184l2.842,1.359l1.667-3.486l4.951,2.367c-0.02,0.567-0.291,1.588-0.922,2.907
			c-1.961,4.102-5.943,5.581-10.426,3.438c-4.6-2.199-5.676-6.349-3.658-10.567c0.994-2.08,1.977-3.23,2.992-4.076l-2.521-2.178
			c-0.874,0.698-2.282,2.364-3.445,4.796c-3.123,6.533-1.254,12.862,5.002,15.889c2.988,1.429,6.071,1.68,8.582,0.72
			c2.684-1.021,4.752-3.163,6.349-6.503c1.247-2.607,1.778-5.376,1.912-6.86l-9.99-4.777L134.427,266.184z"/>
		<path fill="#FFFFFF" d="M146.78,246.78l-0.085-0.048c0.409-2.159-0.304-4.772-2.757-6.173c-1.637-0.934-3.299-1.098-4.77-0.554
			c-1.812,0.685-3.309,2.261-4.871,4.996c-1.143,2.002-2.068,4.017-2.57,5.487l18.723,10.689l1.965-3.44l-7.812-4.459l0.998-1.749
			c1.184-1.941,2.472-2.365,5.275-1.512c2.658,0.845,4.483,1.25,5.208,1.291l2.028-3.553c-0.942-0.052-3.432-0.8-6.154-1.532
			C149.868,245.626,148.076,245.688,146.78,246.78z M143.241,249.769l-1.176,2.059l-6.006-3.429c0.108-0.387,0.426-1.14,1.055-2.239
			c1.287-2.256,3.096-3.131,5.154-1.956C144.157,245.283,144.577,247.429,143.241,249.769z"/>
		<path fill="#FFFFFF" d="M161.071,223.185c-5.195-3.504-11.312-3.088-14.871,2.188c-3.449,5.114-1.898,11.291,3.699,15.068
			c5.303,3.577,11.412,2.999,14.88-2.143C168.138,233.319,167.154,227.289,161.071,223.185z M162.223,236.339
			c-2.143,3.176-6.329,3.054-10.044,0.548c-3.741-2.524-5.603-6.325-3.388-9.609c2.234-3.311,6.607-2.828,10.026-0.521
			C162.613,229.317,164.384,233.136,162.223,236.339z"/>
		<path fill="#FFFFFF" d="M175.52,212.756c-2.479-1.943-5.108-1.694-8.577,0.415c-2.698,1.599-4.093,2.115-5.421,1.073
			c-1.023-0.801-1.41-2.466,0.152-4.459c1.263-1.61,2.689-2.431,3.523-2.81l-1.949-2.725c-1.162,0.534-2.633,1.568-4.095,3.434
			c-2.945,3.757-2.667,7.771,0.17,9.995c2.479,1.943,5.409,1.311,8.676-0.75c2.495-1.551,3.943-1.819,5.247-0.797
			c1.405,1.102,1.469,2.968-0.094,4.961c-1.262,1.61-2.995,2.769-4.364,3.305l2.046,2.759c1.329-0.485,3.323-1.976,4.766-3.816
			C179.066,218.919,178.306,214.94,175.52,212.756z"/>
		<path fill="#FFFFFF" d="M186.683,200.036c-2.358-2.09-4.999-2-8.589-0.104c-2.79,1.434-4.213,1.864-5.478,0.744
			c-0.972-0.862-1.258-2.547,0.423-4.443c1.357-1.531,2.832-2.265,3.687-2.592l-1.782-2.838c-1.191,0.463-2.723,1.406-4.295,3.181
			c-3.167,3.573-3.132,7.598-0.434,9.989c2.357,2.09,5.322,1.635,8.707-0.225c2.585-1.398,4.047-1.579,5.286-0.479
			c1.337,1.185,1.288,3.051-0.392,4.947c-1.357,1.532-3.158,2.583-4.558,3.036l1.876,2.878c1.356-0.404,3.438-1.771,4.988-3.522
			C189.85,206.402,189.332,202.384,186.683,200.036z"/>
		<polygon fill="#FFFFFF" points="187.647,176.91 193.789,183.164 187.188,189.647 181.045,183.394 178.196,186.192 193.53,201.804 
			196.379,199.005 189.622,192.126 196.223,185.642 202.981,192.521 205.83,189.723 190.496,174.111 		"/>
		<path fill="#FFFFFF" d="M198.971,166.707l8.734,21.262l3.155-2.657l-2.556-5.958l5.291-4.456l5.512,3.469l3.304-2.782
			l-19.54-12.162L198.971,166.707z M206.366,169.991l4.789,3.015l-4.298,3.619l-2.181-5.211c-0.564-1.224-1.273-2.622-1.842-3.8
			l0.051-0.042C203.95,168.332,205.184,169.245,206.366,169.991z"/>
		<path fill="#FFFFFF" d="M222.789,148.262l4.458,6.196c1.953,2.716,3.656,4.972,5.6,7.174l-0.053,0.038
			c-2.201-1.337-4.736-2.635-7.318-3.778l-10.069-4.32l-3.718,2.674l12.783,17.771l3.006-2.162l-4.57-6.354
			c-2.105-2.927-3.846-5.236-5.628-7.435l0.087-0.103c2.311,1.378,5.026,2.706,7.563,3.841l10.274,4.493l3.375-2.428L225.794,146.1
			L222.789,148.262z"/>
		<path fill="#FFFFFF" d="M245.018,136.959c-2.598-0.402-5.424,0.321-8.926,2.44c-2.027,1.228-3.816,2.538-5.211,3.685
			l11.148,18.422c1.225-0.55,2.792-1.347,4.765-2.541c3.64-2.203,6.092-4.864,6.928-7.685c0.804-2.688,0.446-5.85-1.589-9.212
			C250.216,138.9,247.743,137.322,245.018,136.959z M245.858,155.85c-0.695,0.42-1.417,0.857-1.939,1.06l-8.122-13.421
			c0.433-0.414,1.133-0.951,2.216-1.607c4.279-2.589,8.115-1.646,10.576,2.483C251.463,149.116,250.321,153.187,245.858,155.85z"/>
		<polygon fill="#FFFFFF" points="262.916,145.736 259.983,140.014 267.323,136.251 265.841,133.361 258.5,137.124 255.922,132.096 
			263.697,128.11 262.2,125.191 250.872,130.999 260.858,150.478 272.62,144.448 271.123,141.529 		"/>
		<polygon fill="#FFFFFF" points="286.043,134.833 277.809,138.455 270.342,121.483 266.687,123.091 275.5,143.125 287.39,137.894 
					"/>
	</g>


</svg>
