<?xml version="1.0" encoding="utf-8"?>

<svg version="1.1" xmlns="http://www.w3.org/2000/svg" xmlns:xlink="http://www.w3.org/1999/xlink" x="0px" y="0px"
	 viewBox="0 0 779.528 779.528" enable-background="new 0 0 779.528 779.528" xml:space="preserve">


	<g class="word" id="zone_2">>
		<g>
			<path fill="#FFFFFF" d="M524.549,650.785c-0.659,0.825-2.324,2.207-4.75,3.37c-6.328,3.037-12.074,0.919-14.997-5.172
				c-3.15-6.565-0.468-12.727,5.623-15.65c2.396-1.149,4.322-1.456,5.246-1.426l0.622,3.267c-1.145,0.041-2.646,0.324-4.272,1.104
				c-4.051,1.944-5.759,5.892-3.46,10.683c2.115,4.406,5.992,5.966,10.398,3.851c1.448-0.695,2.845-1.729,3.622-2.611
				L524.549,650.785z"/>
		</g>
		<g>
			<path fill="#FFFFFF" d="M539.293,630.244c3.68,6.435,1.88,12.338-3.388,15.35c-5.438,3.11-11.232,0.906-14.439-4.703
				c-3.387-5.922-2.034-12.212,3.376-15.306C530.422,622.394,536.152,624.748,539.293,630.244z M525.119,638.689
				c2.247,3.929,5.986,5.91,9.346,3.988c3.389-1.938,3.489-6.188,1.193-10.204c-2.068-3.616-5.815-6.007-9.317-4.004
				C522.867,630.456,522.855,634.731,525.119,638.689z"/>
		</g>
		<g>
			<path fill="#FFFFFF" d="M548.564,637.661l-12.475-18.255l3.819-2.61l10.062,4.607c2.58,1.217,5.106,2.589,7.298,3.992
				l0.054-0.037c-1.909-2.271-3.574-4.59-5.48-7.38l-4.35-6.365l3.088-2.11l12.475,18.255l-3.467,2.369l-10.264-4.787
				c-2.534-1.208-5.244-2.615-7.544-4.062l-0.09,0.101c1.745,2.264,3.447,4.637,5.501,7.644l4.461,6.527L548.564,637.661z"/>
		</g>
		<g>
			<path fill="#FFFFFF" d="M571.431,621.272l-19.38-12.817l3.436-2.742l8.64,5.987c2.406,1.647,4.592,3.176,6.705,4.93l0.052-0.041
				c-1.176-2.419-2.213-5.033-3.224-7.667l-3.79-9.901l3.357-2.681l7.818,22.045L571.431,621.272z"/>
		</g>
		<g>
			<path fill="#FFFFFF" d="M585.874,595.928l-6.162,5.604l4.369,4.804l6.89-6.266l2.229,2.45l-9.874,8.98l-14.871-16.353l9.51-8.649
				l2.229,2.45l-6.526,5.936l3.84,4.221l6.162-5.604L585.874,595.928z"/>
		</g>
		<g>
			<path fill="#FFFFFF" d="M596.322,599.557l-15.961-15.293l3.199-3.339l10.792,2.437c2.774,0.66,5.529,1.482,7.961,2.404
				l0.046-0.047c-2.336-1.829-4.441-3.755-6.881-6.092l-5.564-5.332l2.586-2.7l15.962,15.292l-2.904,3.031l-11.027-2.571
				c-2.728-0.661-5.668-1.479-8.217-2.422l-0.067,0.117c2.174,1.855,4.327,3.828,6.956,6.346l5.707,5.468L596.322,599.557z"/>
		</g>
		<g>
			<path fill="#FFFFFF" d="M597.753,565.38l16.764,14.408l-2.63,3.059l-16.764-14.408L597.753,565.38z"/>
		</g>
		<g>
			<path fill="#FFFFFF" d="M617.77,560.09l-5.14,6.554l5.109,4.006l5.746-7.328l2.606,2.044l-8.235,10.501l-17.391-13.637
				l7.931-10.115l2.606,2.044l-5.442,6.941l4.489,3.521l5.14-6.554L617.77,560.09z"/>
		</g>
		<g>
			<path fill="#FFFFFF" d="M628.685,561.904l-18.296-12.413l2.597-3.828l11.05,0.6c2.847,0.187,5.7,0.538,8.253,1.041l0.037-0.054
				c-2.609-1.414-5.008-2.961-7.804-4.858l-6.379-4.328l2.1-3.095l18.296,12.414l-2.357,3.475l-11.304-0.692
				c-2.801-0.196-5.837-0.512-8.508-1.016l-0.047,0.127c2.454,1.467,4.907,3.052,7.92,5.096l6.542,4.438L628.685,561.904z"/>
		</g>
		<g>
			<path fill="#FFFFFF" d="M648.789,528.646c-0.077,1.053-0.67,3.133-2.013,5.463c-3.504,6.08-9.439,7.58-15.292,4.207
				c-6.308-3.635-7.577-10.233-4.204-16.085c1.326-2.301,2.742-3.643,3.521-4.14l2.358,2.343c-0.922,0.68-2,1.762-2.9,3.325
				c-2.243,3.893-1.42,8.113,3.183,10.766c4.233,2.439,8.312,1.535,10.752-2.698c0.802-1.392,1.369-3.033,1.512-4.2L648.789,528.646
				z"/>
		</g>
		<g>
			<path fill="#FFFFFF" d="M647.918,509.8l-3.689,7.468l5.822,2.876l4.125-8.351l2.97,1.467l-5.912,11.967l-19.818-9.791
				l5.694-11.526l2.97,1.467l-3.907,7.91l5.116,2.527l3.689-7.468L647.918,509.8z"/>
		</g>
	</g>
	
</svg>
