<?xml version="1.0" encoding="utf-8"?>

<svg version="1.1" xmlns="http://www.w3.org/2000/svg" xmlns:xlink="http://www.w3.org/1999/xlink" x="0px" y="0px"
	 viewBox="0 0 779.528 779.528" enable-background="new 0 0 779.528 779.528" xml:space="preserve">

	 <g class="word" id="zone_4">
		<polygon fill="#FFFFFF" points="124.903,509.442 130.801,506.724 134.289,514.289 137.268,512.915 133.78,505.35 138.961,502.96 
			142.657,510.973 145.664,509.586 140.282,497.91 120.206,507.166 125.795,519.289 128.803,517.901 		"/>
		
			<rect x="127.378" y="517.58" transform="matrix(0.8881 -0.4596 0.4596 0.8881 -223.34 121.7707)" fill="#FFFFFF" width="22.106" height="4.034"/>
		<path fill="#FFFFFF" d="M157.967,531.817l-6.641,3.912c-2.911,1.715-5.336,3.22-7.73,4.972l-0.033-0.056
			c1.547-2.091,3.086-4.521,4.473-7.012l5.271-9.729l-2.348-3.984l-19.046,11.22l1.896,3.222l6.811-4.012
			c3.137-1.848,5.619-3.386,7.994-4.976l0.096,0.097c-1.6,2.198-3.184,4.806-4.559,7.253l-5.463,9.917l2.131,3.617l19.046-11.22
			L157.967,531.817z"/>
		<polygon fill="#FFFFFF" points="148.789,552.158 148.87,552.102 168.62,552.02 170.563,550.679 161.733,537.884 158.979,539.785 
			164.83,548.261 164.748,548.316 144.816,548.365 142.981,549.632 152.463,563.371 155.217,561.471 		"/>
		<polygon fill="#FFFFFF" points="165.137,563.72 170.288,570.266 172.866,568.238 167.714,561.692 172.199,558.164 
			177.654,565.096 180.256,563.048 172.307,552.945 154.937,566.613 163.19,577.102 165.793,575.055 160.034,567.735 		"/>
		<polygon fill="#FFFFFF" points="185.159,568.689 182.483,565.669 165.936,580.325 174.633,590.145 177.163,587.906 
			171.139,581.105 		"/>
		<polygon fill="#FFFFFF" points="202.29,586.622 196.069,592.926 189.415,586.359 195.637,580.056 192.765,577.222 
			177.236,592.956 180.108,595.79 186.95,588.857 193.604,595.424 186.76,602.357 189.632,605.191 205.162,589.456 		"/>
		<path fill="#FFFFFF" d="M212.164,595.561l-19.697,12.275l3.176,2.694l5.502-3.547l5.327,4.518l-2.525,6.07l3.326,2.821
			l8.818-21.501L212.164,595.561z M210.139,603.476l-2.195,5.275l-4.327-3.669l4.821-3.049c1.123-0.767,2.396-1.709,3.473-2.472
			l0.05,0.042C211.383,600.79,210.683,602.174,210.139,603.476z"/>
		<path fill="#FFFFFF" d="M234.545,613.007l-4.525,6.239c-1.983,2.735-3.605,5.083-5.1,7.646l-0.053-0.039
			c0.582-2.535,1.022-5.376,1.299-8.215l0.945-11.023l-3.744-2.715l-12.979,17.895l3.026,2.195l4.641-6.399
			c2.138-2.947,3.798-5.349,5.341-7.755l0.125,0.051c-0.587,2.653-0.998,5.678-1.281,8.47l-1.046,11.275l3.398,2.465l12.979-17.895
			L234.545,613.007z"/>
		<path fill="#FFFFFF" d="M252.655,627.411c-0.846-2.516-2.807-4.714-6.333-6.87c-2.043-1.249-4.049-2.244-5.725-2.961
			l-11.341,18.554c1.062,0.841,2.505,1.876,4.492,3.091c3.666,2.241,7.189,3.203,10.108,2.642c2.783-0.528,5.452-2.317,7.522-5.704
			C253.33,632.974,253.596,630.023,252.655,627.411z M247.672,634.053c-2.924,4.786-7.105,5.651-11.565,2.886
			c-0.7-0.428-1.427-0.873-1.852-1.247l8.262-13.517c0.571,0.196,1.379,0.574,2.47,1.241
			C249.297,626.05,250.233,629.928,247.672,634.053z"/>
		<polygon fill="#FFFFFF" points="264.672,645.059 266.184,642.149 258.793,638.309 261.424,633.246 269.251,637.313 
			270.779,634.374 259.372,628.447 249.18,648.059 261.024,654.213 262.551,651.274 254.287,646.98 257.281,641.218 		"/>
		<polygon fill="#FFFFFF" points="269.903,654.57 277.543,637.475 273.862,635.829 264.842,656.007 276.817,661.36 278.196,658.276 
					"/>
	</g>
   

</svg>
